<?xml version="1.0" encoding="UTF-8"?>
<svg version="1.1" xmlns="http://www.w3.org/2000/svg" width="376" height="386">
<path d="M0 0 C124.08 0 248.16 0 376 0 C376 127.38 376 254.76 376 386 C251.92 386 127.84 386 0 386 C0 258.62 0 131.24 0 0 Z " fill="#000000" transform="translate(0,0)"/>
<path d="M0 0 C4.09392033 1.46586876 7.76947447 3.53477117 11.55078125 5.66796875 C12.41227783 6.14766113 13.27377441 6.62735352 14.16137695 7.12158203 C23.2833417 12.22897229 32.30067922 17.51789177 41.3125 22.81640625 C45.32975797 25.17257134 49.37876054 27.45775465 53.45678711 29.70654297 C57.90201747 32.18864164 62.28365357 34.78097475 66.67578125 37.35546875 C75.34656438 42.42644881 84.03375416 47.46764053 92.73828125 52.48046875 C101.56247751 57.5646392 110.37648015 62.66581693 119.17578125 67.79296875 C120.19478516 68.3859375 121.21378906 68.97890625 122.26367188 69.58984375 C123.67229492 70.41162109 123.67229492 70.41162109 125.109375 71.25 C126.34578735 71.97086792 126.34578735 71.97086792 127.60717773 72.70629883 C129.3485741 73.74746593 131.05012313 74.85503 132.73828125 75.98046875 C133.13535786 78.56523418 133.13535786 78.56523418 133.16633606 81.90641785 C133.18491165 83.16958832 133.20348724 84.43275879 133.22262573 85.73420715 C133.22795702 87.14205802 133.23291889 88.54991032 133.23754883 89.95776367 C133.25306725 91.43437939 133.26976308 92.91098313 133.28755188 94.38757324 C133.33124749 98.40637278 133.35466036 102.42503606 133.37177873 106.44402862 C133.38278684 108.95508492 133.39707193 111.4661026 133.4122982 113.97713661 C133.45871644 121.83400218 133.49227101 129.69077604 133.50831395 137.54776305 C133.52703865 146.61661717 133.5884047 155.68385502 133.68681604 164.75218695 C133.76024907 171.76122197 133.7951938 178.76979934 133.8011772 185.77921373 C133.80562224 189.96577917 133.82635364 194.15074756 133.8872776 198.33690453 C133.94359899 202.27831611 133.95203975 206.21699579 133.9242382 210.15868378 C133.92220461 211.60229077 133.93717313 213.04604091 133.97071075 214.48925972 C134.20897986 225.37223433 134.20897986 225.37223433 130.56818199 229.3535099 C128.02808616 231.160493 125.52957299 232.60145154 122.73828125 233.98046875 C121.4486003 234.752062 120.16331492 235.53116434 118.88671875 236.32421875 C117.63077668 237.04623216 116.37289063 237.76487246 115.11328125 238.48046875 C107.9918545 242.59631441 101.00965897 246.90854123 94.05078125 251.29296875 C86.30725765 256.16754623 78.51395587 260.92750554 70.61328125 265.54296875 C62.01673377 270.56501482 53.5888106 275.81340833 45.23193359 281.22485352 C40.52924863 284.25908826 35.78979641 287.11198098 30.87475586 289.78808594 C28.77975511 290.95732187 26.74802103 292.19322959 24.71875 293.47265625 C24.08904297 293.86710937 23.45933594 294.2615625 22.81054688 294.66796875 C21.52945982 295.47511997 20.25356166 296.29055359 18.98242188 297.11328125 C14.26075548 300.0429605 14.26075548 300.0429605 11.84814453 299.75439453 C3.64059003 296.74375489 -3.9616523 291.44744711 -11.44921875 286.98046875 C-19.51075619 282.19242941 -27.59443175 277.4449218 -35.69921875 272.73046875 C-52.27243025 263.08142854 -52.27243025 263.08142854 -58.53466797 259.1550293 C-61.02418184 257.63917813 -63.4988396 256.4121273 -66.1875 255.29052734 C-76.155396 250.83487668 -76.155396 250.83487668 -78.04879761 245.94973755 C-79.14141126 240.12553451 -78.6294997 234.2887328 -78.19921875 228.41796875 C-78.12388271 226.62853531 -78.05545772 224.83879678 -77.99414062 223.04882812 C-77.82968002 218.68511423 -77.57163692 214.33616999 -77.26171875 209.98046875 C-75.03915994 208.70946475 -72.81648723 207.43866066 -70.59375 206.16796875 C-69.97052856 205.81154297 -69.34730713 205.45511719 -68.7052002 205.08789062 C-54.52186067 196.98046875 -54.52186067 196.98046875 -53.26171875 196.98046875 C-53.26171875 209.19046875 -53.26171875 221.40046875 -53.26171875 233.98046875 C-51.28171875 234.64046875 -49.30171875 235.30046875 -47.26171875 235.98046875 C-44.81488091 237.32883842 -42.44555243 238.7001611 -40.07421875 240.16796875 C-39.41711914 240.56798096 -38.76001953 240.96799316 -38.08300781 241.38012695 C-34.1923028 243.75804323 -30.34435877 246.19743245 -26.51171875 248.66796875 C-22.08020052 251.52149829 -17.52625672 254.03396618 -12.87890625 256.515625 C-10.41059551 257.8971422 -8.09418032 259.38260806 -5.76171875 260.98046875 C-2.41174042 263.25194686 0.98467377 265.38981094 4.48828125 267.41796875 C5.37 267.93230469 6.25171875 268.44664062 7.16015625 268.9765625 C10.27723286 270.19033324 11.55142627 269.85463244 14.73828125 268.98046875 C16.81474725 267.95058873 16.81474725 267.95058873 18.78515625 266.609375 C19.53861328 266.12275391 20.29207031 265.63613281 21.06835938 265.13476562 C21.86693359 264.60947266 22.66550781 264.08417969 23.48828125 263.54296875 C25.20040605 262.43790585 26.9139759 261.33507898 28.62890625 260.234375 C29.48806641 259.68281738 30.34722656 259.13125977 31.23242188 258.56298828 C34.84972678 256.27856015 38.5352223 254.12210265 42.23828125 251.98046875 C48.43234071 248.38679032 54.50979838 244.63826256 60.55078125 240.79296875 C80.70012764 227.98046875 80.70012764 227.98046875 83.73828125 227.98046875 C83.73828125 227.32046875 83.73828125 226.66046875 83.73828125 225.98046875 C83.03227783 225.7165332 82.32627441 225.45259766 81.59887695 225.18066406 C78.56969067 223.90973467 75.8174793 222.41284082 72.96875 220.77734375 C71.8451709 220.134021 70.7215918 219.49069824 69.56396484 218.82788086 C68.35116404 218.12887003 67.13843806 217.42972936 65.92578125 216.73046875 C64.66368147 216.00575395 63.40147294 215.28122851 62.13916016 214.55688477 C53.37937971 209.52489704 44.64535078 204.44881928 35.92692566 199.34552002 C28.30051846 194.88265232 20.65201412 190.45888506 12.99609375 186.046875 C11.79758956 185.35586595 10.59910315 184.66482604 9.40063477 183.97375488 C6.51335715 182.30902479 3.62590359 180.64460078 0.73828125 178.98046875 C0.17828926 170.61900101 -0.24590776 162.2655054 -0.50521088 153.88984489 C-0.62980268 149.99805883 -0.79790307 146.11919446 -1.07226562 142.23486328 C-2.78931741 117.27346481 -2.78931741 117.27346481 2.97702026 110.25598145 C8.67765846 105.61055913 15.06726988 102.74534883 21.88812256 100.10943604 C25.37513541 98.72820648 28.34512617 97.02471443 31.5234375 95.04296875 C32.41224609 94.52750488 33.30105469 94.01204102 34.21679688 93.48095703 C46.83163136 86.15567616 59.30887384 78.61557595 71.73828125 70.98046875 C68.34973881 68.15873705 64.93580278 65.80007006 61.11328125 63.60546875 C59.53546875 62.69861328 59.53546875 62.69861328 57.92578125 61.7734375 C54.10147772 59.62226677 50.24728955 57.5304632 46.38671875 55.4453125 C43.79851516 54.01378397 41.26620342 52.51556344 38.73828125 50.98046875 C34.46914799 48.38945391 30.12214076 45.98595033 25.7265625 43.6171875 C21.23673256 41.15805189 16.81581833 38.58084406 12.390625 36.0078125 C11.81860352 35.6977124 11.24658203 35.3876123 10.65722656 35.06811523 C8.73828125 33.98046875 8.73828125 33.98046875 6.45214844 32.42602539 C3.84956913 30.81284582 1.72064992 29.69624825 -1.26171875 28.98046875 C-5.33972059 30.01517422 -8.44930318 32.1719036 -11.88671875 34.54296875 C-12.84167236 35.15470947 -13.79662598 35.7664502 -14.78051758 36.39672852 C-16.71581309 37.64018708 -18.64060412 38.90015619 -20.55419922 40.17675781 C-23.65653049 42.24348671 -26.80451818 44.22470975 -29.97216797 46.18920898 C-31.2276688 46.96951717 -32.47859987 47.75726518 -33.72314453 48.55493164 C-37.20535567 50.77742183 -40.75044835 52.81202131 -44.38671875 54.7734375 C-50.29755769 57.9653816 -56.06863873 61.37135335 -61.83480835 64.81640625 C-71.58530741 70.64101091 -81.35967441 76.41628856 -91.26171875 81.98046875 C-91.26171875 82.64046875 -91.26171875 83.30046875 -91.26171875 83.98046875 C-90.63305908 84.33238281 -90.00439941 84.68429688 -89.35668945 85.046875 C-78.80406414 90.96167313 -68.27792002 96.86828194 -58.0234375 103.2890625 C-54.4711619 105.46464289 -50.829672 107.44088533 -47.16015625 109.41015625 C-43.7323148 111.26728868 -40.33744675 113.1772452 -36.94921875 115.10546875 C-35.25345703 116.06839844 -35.25345703 116.06839844 -33.5234375 117.05078125 C-31.90888672 118.00597656 -31.90888672 118.00597656 -30.26171875 118.98046875 C-28.58142578 119.64949219 -28.58142578 119.64949219 -26.8671875 120.33203125 C-23.61193679 123.64096676 -23.82467252 124.94356455 -23.67578125 129.49609375 C-23.71565922 132.07486906 -23.78720453 134.65330572 -23.88671875 137.23046875 C-23.92732422 139.20660156 -23.92732422 139.20660156 -23.96875 141.22265625 C-24.03949453 144.47690462 -24.13817814 147.72786623 -24.26171875 150.98046875 C-28.06863805 149.8016313 -31.40566137 148.49181471 -34.81640625 146.43359375 C-35.66533447 145.92602539 -36.5142627 145.41845703 -37.38891602 144.89550781 C-38.29569092 144.34604492 -39.20246582 143.79658203 -40.13671875 143.23046875 C-42.1219744 142.04226433 -44.10766628 140.85478853 -46.09375 139.66796875 C-47.11549316 139.05566406 -48.13723633 138.44335938 -49.18994141 137.8125 C-54.04703178 134.91569455 -58.93521053 132.07296305 -63.82421875 129.23046875 C-70.6076589 125.28118243 -77.38641649 121.32412199 -84.15625 117.3515625 C-84.82106888 116.96149017 -85.48588776 116.57141785 -86.17085266 116.16952515 C-89.44589536 114.24771008 -92.72042326 112.32502352 -95.99438477 110.40136719 C-97.18504737 109.70245485 -98.37572066 109.0035607 -99.56640625 108.3046875 C-100.61812012 107.68682373 -101.66983398 107.06895996 -102.75341797 106.43237305 C-104.23392006 105.57539953 -105.7316756 104.74549033 -107.26171875 103.98046875 C-107.25857635 104.60884706 -107.25543394 105.23722538 -107.25219631 105.88464546 C-107.1787842 121.18373749 -107.15509621 136.48203235 -107.18656063 151.78122139 C-107.20058129 159.17993778 -107.19785273 166.57793623 -107.15551758 173.9765625 C-107.11865478 180.42628253 -107.11339801 186.87512707 -107.14588934 193.3248843 C-107.16199245 196.73951092 -107.16240775 200.15249585 -107.12495232 203.5669899 C-107.09105246 207.38216916 -107.11302277 211.19322032 -107.14819336 215.00830078 C-107.12518661 216.13686996 -107.10217987 217.26543915 -107.07847595 218.4282074 C-107.22779078 225.92183696 -107.22779078 225.92183696 -110.20353889 228.96868515 C-112.49745564 230.52055133 -114.77249791 231.77263854 -117.26171875 232.98046875 C-118.5583356 233.74865808 -119.85000901 234.52536561 -121.1328125 235.31640625 C-122.31970747 235.99941856 -123.50847916 236.67918129 -124.69921875 237.35546875 C-125.30958984 237.70996094 -125.91996094 238.06445312 -126.54882812 238.4296875 C-131.01515746 240.98046875 -131.01515746 240.98046875 -133.26171875 240.98046875 C-133.47196062 219.8317524 -133.63066787 198.68320833 -133.7280283 177.53365898 C-133.7744363 167.71349023 -133.83770499 157.89397075 -133.94067383 148.07421875 C-134.03037929 139.51526526 -134.08844244 130.95678194 -134.1085152 122.39737141 C-134.12024934 117.86491703 -134.14782075 113.33380771 -134.21328926 108.80178452 C-134.27442806 104.53487275 -134.29321502 100.26985831 -134.27968788 96.00255013 C-134.28216194 94.4375597 -134.30004178 92.87250523 -134.33456802 91.30789375 C-134.58282575 79.47634365 -134.58282575 79.47634365 -131.29018784 75.74812603 C-128.99760813 74.19463641 -126.80731856 73.05578209 -124.26171875 71.98046875 C-123.31570801 71.3985376 -122.36969727 70.81660645 -121.39501953 70.21704102 C-120.18821533 69.51405884 -120.18821533 69.51405884 -118.95703125 68.796875 C-118.04928955 68.26521729 -117.14154785 67.73355957 -116.20629883 67.18579102 C-115.2758374 66.64365967 -114.34537598 66.10152832 -113.38671875 65.54296875 C-106.78050861 61.67141979 -100.24219813 57.75351152 -93.82324219 53.57910156 C-91.2871637 51.99634881 -88.71337252 50.56291494 -86.078125 49.15234375 C-80.77131938 46.27835871 -75.56917206 43.25925669 -70.38671875 40.16796875 C-68.46254264 39.02553109 -66.5380463 37.88363265 -64.61328125 36.7421875 C-63.0823584 35.83412354 -63.0823584 35.83412354 -61.52050781 34.90771484 C-56.23006818 31.7789517 -50.92559553 28.67421756 -45.62127686 25.56906128 C-34.24717478 18.9106178 -22.8864162 12.23011318 -11.54296875 5.51953125 C-10.78628906 5.07641602 -10.02960938 4.63330078 -9.25 4.17675781 C-7.62365076 3.19823236 -6.04401358 2.14244132 -4.48046875 1.06640625 C-2.26171875 -0.01953125 -2.26171875 -0.01953125 0 0 Z " fill="#01A3E2" transform="translate(184.26171875,37.01953125)"/>
<path d="M0 0 C3.13687134 1.33758545 3.13687134 1.33758545 6 4 C6.90683566 7.86981111 6.75694054 11.69588167 6.68115234 15.65332031 C6.68246658 17.43909988 6.68246658 17.43909988 6.68380737 19.26095581 C6.68034453 22.52156412 6.65026976 25.78062507 6.60836363 29.04092503 C6.57084124 32.44947641 6.56733016 35.85805862 6.56021118 39.26678467 C6.54156645 45.7197337 6.49233557 52.17207242 6.43211424 58.62475276 C6.36503661 65.97165685 6.33205714 73.31859018 6.30194163 80.66572428 C6.23923535 95.77748951 6.13370867 110.88868371 6 126 C1.45849061 124.5589024 -2.16797321 122.82649171 -6.1875 120.25 C-11.07415275 117.12745963 -16.05819477 114.31520843 -21.15991211 111.55761719 C-25.56448028 109.14197677 -29.87381468 106.57339334 -34.1875 104 C-42.41849659 99.11291285 -50.66773619 94.25871821 -58.9375 89.4375 C-60.4373645 88.56254883 -60.4373645 88.56254883 -61.9675293 87.66992188 C-66.96573104 84.75724264 -71.97524934 81.86659805 -77 79 C-80.59553097 47.7297032 -80.59553097 47.7297032 -75.20996094 39.14746094 C-70.13456974 34.4837618 -63.88097092 32.06010503 -57.54736328 29.53027344 C-51.76643927 27.0364791 -46.4853066 23.75273657 -41.10998535 20.49420166 C-39.26124946 19.3817691 -37.40092727 18.29234643 -35.53417969 17.21044922 C-29.99187034 13.99733858 -24.50565571 10.73021678 -19.14453125 7.21875 C-18.27473633 6.64979004 -17.40494141 6.08083008 -16.50878906 5.49462891 C-14.93119899 4.45014462 -13.36323299 3.39090372 -11.80761719 2.31396484 C-7.55503257 -0.50947249 -5.09914937 -1.87315691 0 0 Z " fill="#000103" transform="translate(286,123)"/>
<path d="M0 0 C-6.625 4 -6.625 4 -10 4 C-10 4.66 -10 5.32 -10 6 C-13.0773633 8.32678689 -15.8151353 9.92126133 -19.375 11.4375 C-22.96713638 12.98583465 -25.97913603 14.82585423 -29.203125 17.01171875 C-31 18 -31 18 -34 18 C-34 18.66 -34 19.32 -34 20 C-35.28583984 20.67095703 -35.28583984 20.67095703 -36.59765625 21.35546875 C-44.02091482 25.21747878 -44.02091482 25.21747878 -51 29.8125 C-53.71162041 31.78972322 -55.91000062 32.8115387 -59 34 C-61.00698975 35.3227887 -63.00591923 36.65783025 -65 38 C-66.47283327 38.82392501 -67.95248325 39.63574223 -69.4375 40.4375 C-72.25781253 41.97457033 -74.8717306 43.56962161 -77.4375 45.5 C-80.03743946 47.42324289 -82.64229268 48.86123691 -85.5625 50.25 C-90.61657032 52.68458265 -95.21190329 55.63290474 -99.89453125 58.69995117 C-103.06341711 60.76982392 -106.23511676 62.75812857 -109.5625 64.5625 C-110.2003241 64.93949036 -110.83814819 65.31648071 -111.49530029 65.70489502 C-114 67 -114 67 -117.23370361 67.98773193 C-121.44435852 69.67162321 -124.47871057 71.14083139 -127 75 C-129.36990753 83.4443508 -128.5292062 92.65435859 -128.28518963 101.34177876 C-128.19946261 104.90373375 -128.18954882 108.46592224 -128.17144775 112.02874756 C-128.12590466 118.79986944 -128.01512323 125.56824182 -127.87970567 132.33810019 C-127.71563153 140.67929411 -127.62913705 149.02094292 -127.546875 157.36328125 C-127.51746117 160.32786595 -127.48762266 163.29244562 -127.45709229 166.25701904 C-127.44967837 166.9799001 -127.44226445 167.70278116 -127.43462586 168.4475677 C-127.38235411 173.31875426 -127.30664598 178.18918928 -127.22015381 183.05987549 C-126.93461341 200.08693324 -127.20134897 216.98966115 -128 234 C-127.31292969 233.566875 -126.62585938 233.13375 -125.91796875 232.6875 C-125.01691406 232.130625 -124.11585937 231.57375 -123.1875 231 C-122.29417969 230.443125 -121.40085937 229.88625 -120.48046875 229.3125 C-118 228 -118 228 -115 228 C-115 227.34 -115 226.68 -115 226 C-112.35261084 224.5393715 -111.10551666 224 -108 224 C-108.00092179 223.35762705 -108.00184359 222.7152541 -108.00279331 222.0534153 C-108.02485663 206.43884424 -108.04141551 190.82427859 -108.05181217 175.20969582 C-108.05697327 167.65867173 -108.06401244 160.10765804 -108.07543945 152.55664062 C-108.08539196 145.97685914 -108.09185479 139.39708519 -108.09408849 132.81729639 C-108.09539463 129.33183828 -108.09847441 125.84640169 -108.10573006 122.36095047 C-108.11375516 118.47451619 -108.11399077 114.58810317 -108.11352539 110.70166016 C-108.11712067 109.54000839 -108.12071594 108.37835663 -108.12442017 107.1815033 C-108.1230455 106.12698471 -108.12167084 105.07246613 -108.12025452 103.98599243 C-108.12117631 103.06604303 -108.1220981 102.14609364 -108.12304783 101.19826698 C-108 99 -108 99 -107 97 C-105.515 97.495 -105.515 97.495 -104 98 C-104.66 98 -105.32 98 -106 98 C-105.96958083 98.95608044 -105.96958083 98.95608044 -105.93854713 99.93147564 C-105.45121717 115.49046473 -105.08797233 131.04677854 -104.86013222 146.61152172 C-104.74699426 154.13923964 -104.59302009 161.66184584 -104.34033203 169.1862793 C-104.11999815 175.75045359 -103.97889634 182.31092819 -103.93005311 188.87869722 C-103.90151205 192.35407101 -103.83534416 195.81887119 -103.67393875 199.29082298 C-102.73113328 220.35677453 -102.73113328 220.35677453 -108.23210907 226.48773575 C-113.86339006 230.97512679 -122.49684025 237 -130 237 C-130.21024187 215.85128365 -130.36894912 194.70273958 -130.46630955 173.55319023 C-130.51271755 163.73302148 -130.57598624 153.913502 -130.67895508 144.09375 C-130.76866054 135.53479651 -130.82672369 126.97631319 -130.84679645 118.41690266 C-130.85853059 113.88444828 -130.886102 109.35333896 -130.95157051 104.82131577 C-131.01270931 100.554404 -131.03149627 96.28938956 -131.01796913 92.02208138 C-131.02044319 90.45709095 -131.03832303 88.89203648 -131.07284927 87.327425 C-131.321107 75.4958749 -131.321107 75.4958749 -128.02846909 71.76765728 C-125.73588938 70.21416766 -123.54559981 69.07531334 -121 68 C-120.05398926 67.41806885 -119.10797852 66.8361377 -118.13330078 66.23657227 C-116.92649658 65.53359009 -116.92649658 65.53359009 -115.6953125 64.81640625 C-114.7875708 64.28474854 -113.8798291 63.75309082 -112.94458008 63.20532227 C-112.01411865 62.66319092 -111.08365723 62.12105957 -110.125 61.5625 C-103.51878986 57.69095104 -96.98047938 53.77304277 -90.56152344 49.59863281 C-88.02544495 48.01588006 -85.45165377 46.58244619 -82.81640625 45.171875 C-77.50960063 42.29788996 -72.30745331 39.27878794 -67.125 36.1875 C-65.20082389 35.04506234 -63.27632755 33.9031639 -61.3515625 32.76171875 C-59.82063965 31.85365479 -59.82063965 31.85365479 -58.25878906 30.92724609 C-54.80993255 28.88759421 -51.35554728 26.85764959 -47.8984375 24.83203125 C-47.29290543 24.47718155 -46.68737335 24.12233185 -46.06349182 23.75672913 C-42.97631946 21.94835442 -39.88778014 20.14235413 -36.79760742 18.33911133 C-30.97041146 14.93552012 -25.16387227 11.50648445 -19.40234375 7.9921875 C-18.39042969 7.37923828 -17.37851563 6.76628906 -16.3359375 6.13476562 C-14.45071078 4.99016369 -12.57141987 3.8357076 -10.69921875 2.66992188 C-9.45398438 1.91678711 -9.45398438 1.91678711 -8.18359375 1.1484375 C-7.46743896 0.70677246 -6.75128418 0.26510742 -6.01342773 -0.18994141 C-3.5794454 -1.16920094 -2.42441306 -0.88451413 0 0 Z " fill="#41DAC6" transform="translate(181,41)"/>
<path d="M0 0 C8.21982934 3.90297448 16.01460681 8.45325581 23.8125 13.125 C25.02519933 13.84797722 26.238089 14.57063526 27.45117188 15.29296875 C30.63667837 17.19104094 33.81910535 19.09420652 37 21 C37.87076455 21.4059779 38.7415291 21.8119558 39.63868046 22.23023605 C42 24 42 24 42.64317226 26.70781326 C42.65155149 27.80948208 42.65993071 28.91115089 42.66856384 30.04620361 C42.70055122 31.94302132 42.70055122 31.94302132 42.73318481 33.87815857 C42.73143717 35.28237993 42.72912947 36.68660068 42.72631836 38.09082031 C42.7412773 39.56759266 42.7582902 41.04434543 42.77720642 42.52107239 C42.82142964 46.53580371 42.83309792 50.55000248 42.83628535 54.5649538 C42.84103181 57.91720965 42.85942501 61.2693413 42.87714583 64.62154937 C42.91788052 72.53308249 42.93006635 80.44433111 42.92651367 88.35595703 C42.92351192 96.51301852 42.97621842 104.66842425 43.05523199 112.8250668 C43.12066607 119.82992864 43.14743082 126.83425027 43.14423662 133.83941531 C43.14296279 138.02253543 43.1571461 142.2041857 43.21012688 146.38700104 C43.25863525 150.32442507 43.25887338 154.25898169 43.22254372 158.19650841 C43.21732523 159.63846475 43.22906951 161.08060132 43.25934601 162.52224922 C43.47276125 173.39162449 43.47276125 173.39162449 39.8279438 177.37206268 C37.28846075 179.17857901 34.7901274 180.62033043 32 182 C30.71035533 182.77165387 29.42507995 183.55077009 28.1484375 184.34375 C26.89249543 185.06576341 25.63460938 185.78440371 24.375 186.5 C17.25357325 190.61584566 10.27137772 194.92807248 3.3125 199.3125 C-4.43102698 204.1870796 -12.2243757 208.94694677 -20.125 213.5625 C-28.77694635 218.61809869 -37.26053279 223.90191156 -45.68212891 229.33227539 C-59.1388125 238 -59.1388125 238 -62 238 C-62 237.34 -62 236.68 -62 236 C-61.34 236 -60.68 236 -60 236 C-60 235.34 -60 234.68 -60 234 C-58.71086513 233.32845067 -57.41859796 232.66291141 -56.125 232 C-55.40570313 231.62875 -54.68640625 231.2575 -53.9453125 230.875 C-52 230 -52 230 -50 230 C-50 229.34 -50 228.68 -50 228 C-49.01 228 -48.02 228 -47 228 C-47 227.34 -47 226.68 -47 226 C-46.24074219 225.59007812 -45.48148438 225.18015625 -44.69921875 224.7578125 C-43.70535156 224.21898437 -42.71148437 223.68015625 -41.6875 223.125 C-40.70136719 222.59132813 -39.71523437 222.05765625 -38.69921875 221.5078125 C-35.90413542 219.99277874 -35.90413542 219.99277874 -33 218 C-32.01 218 -31.02 218 -30 218 C-30 217.34 -30 216.68 -30 216 C-27.03 215.01 -27.03 215.01 -24 214 C-24 213.34 -24 212.68 -24 212 C-22.21118264 210.99491199 -20.41885304 209.99607264 -18.625 209 C-17.62726563 208.443125 -16.62953125 207.88625 -15.6015625 207.3125 C-13 206 -13 206 -11 206 C-11 205.34 -11 204.68 -11 204 C-10.01 204 -9.02 204 -8 204 C-8 203.34 -8 202.68 -8 202 C-6.68 202 -5.36 202 -4 202 C-4 201.34 -4 200.68 -4 200 C2.625 196 2.625 196 6 196 C6 195.34 6 194.68 6 194 C9 192 9 192 12 192 C12 191.34 12 190.68 12 190 C18.625 186 18.625 186 22 186 C22 185.34 22 184.68 22 184 C22.89203125 183.52949219 23.7840625 183.05898438 24.703125 182.57421875 C25.88551092 181.94548973 27.06779735 181.31657357 28.25 180.6875 C29.41015625 180.07261719 30.5703125 179.45773437 31.765625 178.82421875 C35.62486033 176.72103598 35.62486033 176.72103598 39 174 C39.59313721 171.21610224 39.59313721 171.21610224 39.48101807 167.98262024 C39.48651672 166.72478729 39.49201538 165.46695435 39.49768066 164.17100525 C39.48352405 162.77456285 39.46898481 161.37812429 39.45410156 159.98168945 C39.45297344 158.51328563 39.45360625 157.04487956 39.45587158 155.57647705 C39.45702107 151.58691555 39.4334743 147.59783335 39.40557575 143.60838342 C39.3806009 139.44037815 39.3782232 135.27236237 39.37347412 131.10429382 C39.36103278 123.21006844 39.32819562 115.31606416 39.28807616 107.42193621 C39.24339438 98.43536994 39.22138048 89.44879321 39.20129442 80.46214354 C39.15946392 61.97463692 39.08908948 43.48733623 39 25 C38.10434326 24.5251416 37.20868652 24.0502832 36.28588867 23.56103516 C35.10067753 22.92884435 33.9155415 22.2965127 32.73046875 21.6640625 C31.56668701 21.0448291 30.40290527 20.4255957 29.20385742 19.78759766 C26.75692372 18.42232687 24.53405837 17.06576562 22.3125 15.375 C18.92634158 12.81227465 15.26005369 11.04633328 11.4453125 9.203125 C8.20638443 7.609531 5.1122897 5.82677874 2 4 C2 3.34 2 2.68 2 2 C1.34 2 0.68 2 0 2 C0 1.34 0 0.68 0 0 Z " fill="#227EDD" transform="translate(275,89)"/>
<path d="M0 0 C0.33 0 0.66 0 1 0 C1.85667745 26.21526155 2.1607261 52.40668168 2.13037109 78.63525391 C2.12463536 83.65218005 2.12808361 88.66905353 2.13382339 93.68597794 C2.15449693 115.14545856 2.04064216 136.56163995 1 158 C1.68707031 157.566875 2.37414063 157.13375 3.08203125 156.6875 C3.98308594 156.130625 4.88414063 155.57375 5.8125 155 C6.70582031 154.443125 7.59914063 153.88625 8.51953125 153.3125 C11 152 11 152 14 152 C14 151.34 14 150.68 14 150 C16.64738916 148.5393715 17.89448334 148 21 148 C20.99907821 147.35762705 20.99815641 146.7152541 20.99720669 146.0534153 C20.97514337 130.43884424 20.95858449 114.82427859 20.94818783 99.20969582 C20.94302673 91.65867173 20.93598756 84.10765804 20.92456055 76.55664062 C20.91460804 69.97685914 20.90814521 63.39708519 20.90591151 56.81729639 C20.90460537 53.33183828 20.90152559 49.84640169 20.89426994 46.36095047 C20.88624484 42.47451619 20.88600923 38.58810317 20.88647461 34.70166016 C20.88287933 33.54000839 20.87928406 32.37835663 20.87557983 31.1815033 C20.8769545 30.12698471 20.87832916 29.07246613 20.87974548 27.98599243 C20.87882369 27.06604303 20.8779019 26.14609364 20.87695217 25.19826698 C21 23 21 23 22 21 C22.99 21.33 23.98 21.66 25 22 C24.34 22 23.68 22 23 22 C23.01843586 22.63830875 23.03687172 23.27661751 23.05586624 23.93426895 C23.49873334 39.50977717 23.82904752 55.08308009 24.03624344 70.66333389 C24.13912675 78.19843678 24.27918009 85.72932407 24.50878906 93.26171875 C24.70897667 99.83210338 24.83734425 106.39943637 24.8817699 112.97278571 C24.90772949 116.45122213 24.96802377 119.92093579 25.11460114 123.39655304 C25.97031936 144.47605317 25.97031936 144.47605317 20.98985291 150.3848114 C15.29242833 155.13296439 7.62090432 160 0 160 C0 107.2 0 54.4 0 0 Z " fill="#16E4B5" transform="translate(52,117)"/>
<path d="M0 0 C0.33 0 0.66 0 1 0 C1 40.92 1 81.84 1 124 C-3.28328486 123.14334303 -5.51669859 122.37834245 -9.1875 120.3125 C-10.14011719 119.77882813 -11.09273438 119.24515625 -12.07421875 118.6953125 C-15.71847591 116.58368686 -19.32424712 114.41471079 -22.90625 112.19921875 C-25.07583419 110.86522163 -25.07583419 110.86522163 -28 110 C-28 109.34 -28 108.68 -28 108 C-28.598125 107.855625 -29.19625 107.71125 -29.8125 107.5625 C-31.56150404 107.1127561 -33.28677023 106.57107659 -35 106 C-35 105.34 -35 104.68 -35 104 C-35.7425 103.71125 -36.485 103.4225 -37.25 103.125 C-39.56739797 102.17697356 -41.77917115 101.15154089 -44 100 C-44 99.34 -44 98.68 -44 98 C-44.72960937 97.896875 -45.45921875 97.79375 -46.2109375 97.6875 C-49.26486321 96.93471159 -51.07860619 95.8201028 -53.625 94 C-56.17796131 92.18765887 -58.00688125 90.99770625 -61 90 C-61 89.34 -61 88.68 -61 88 C-61.66 88 -62.32 88 -63 88 C-62.505 87.01 -62.505 87.01 -62 86 C-51.38926557 92.23466555 -40.78968684 98.4802473 -30.3125 104.9375 C-23.97454774 108.83692738 -17.57577418 112.50915692 -11 116 C-7.37 117.98 -3.74 119.96 0 122 C0 81.74 0 41.48 0 0 Z " fill="#085BB4" transform="translate(292,127)"/>
<path d="M0 0 C2.0625 0.4375 2.0625 0.4375 4 1 C3.53029785 1.27972656 3.0605957 1.55945313 2.57666016 1.84765625 C-9.00925147 8.75533612 -20.52443268 15.77028701 -32.00048828 22.85888672 C-39.54627278 27.51169755 -47.1350355 32.08648353 -54.75 36.625 C-63.88199953 42.07064155 -72.89786324 47.67408231 -81.83496094 53.43408203 C-95.1415879 62 -95.1415879 62 -98 62 C-98 61.34 -98 60.68 -98 60 C-97.34 60 -96.68 60 -96 60 C-96 59.34 -96 58.68 -96 58 C-94.71086513 57.32845067 -93.41859796 56.66291141 -92.125 56 C-91.40570313 55.62875 -90.68640625 55.2575 -89.9453125 54.875 C-88 54 -88 54 -86 54 C-86 53.34 -86 52.68 -86 52 C-85.01 52 -84.02 52 -83 52 C-83 51.34 -83 50.68 -83 50 C-82.24074219 49.59007812 -81.48148438 49.18015625 -80.69921875 48.7578125 C-79.70535156 48.21898437 -78.71148437 47.68015625 -77.6875 47.125 C-76.70136719 46.59132813 -75.71523437 46.05765625 -74.69921875 45.5078125 C-71.90413542 43.99277874 -71.90413542 43.99277874 -69 42 C-68.01 42 -67.02 42 -66 42 C-66 41.34 -66 40.68 -66 40 C-64.02 39.34 -62.04 38.68 -60 38 C-60 37.34 -60 36.68 -60 36 C-58.21118264 34.99491199 -56.41885304 33.99607264 -54.625 33 C-53.62726563 32.443125 -52.62953125 31.88625 -51.6015625 31.3125 C-49 30 -49 30 -47 30 C-47 29.34 -47 28.68 -47 28 C-46.01 28 -45.02 28 -44 28 C-44 27.34 -44 26.68 -44 26 C-42.68 26 -41.36 26 -40 26 C-40 25.34 -40 24.68 -40 24 C-33.375 20 -33.375 20 -30 20 C-30 19.34 -30 18.68 -30 18 C-27 16 -27 16 -24 16 C-24 15.34 -24 14.68 -24 14 C-17.375 10 -17.375 10 -14 10 C-14 9.34 -14 8.68 -14 8 C-12.60974609 7.25943359 -12.60974609 7.25943359 -11.19140625 6.50390625 C-9.98172045 5.85686501 -8.77208778 5.20972446 -7.5625 4.5625 C-6.95083984 4.23701172 -6.33917969 3.91152344 -5.70898438 3.57617188 C-2.66283794 2.06284858 -2.66283794 2.06284858 0 0 Z " fill="#1272D7" transform="translate(311,265)"/>
<path d="M0 0 C-8.45166985 5.35500539 -17.0779944 10.38641318 -25.75 15.375 C-26.8750293 16.02307617 -28.00005859 16.67115234 -29.15917969 17.33886719 C-37.71228939 22.26413377 -37.71228939 22.26413377 -41.84277344 24.62451172 C-44.27389425 26.01417701 -46.69997692 27.41223112 -49.125 28.8125 C-50.18992676 29.41553955 -50.18992676 29.41553955 -51.27636719 30.03076172 C-52.88485185 30.96433768 -54.44892217 31.97386913 -56 33 C-56 33.66 -56 34.32 -56 35 C-54.04775792 36.28406399 -52.03659238 37.47941678 -50 38.625 C-48.88625 39.25664063 -47.7725 39.88828125 -46.625 40.5390625 C-45.75875 41.02117187 -44.8925 41.50328125 -44 42 C-47 43 -47 43 -49.1875 42.0625 C-50.0846875 41.5365625 -50.0846875 41.5365625 -51 41 C-51 40.34 -51 39.68 -51 39 C-53.31 38.34 -55.62 37.68 -58 37 C-58.33 35.35 -58.66 33.7 -59 32 C-43.64939923 22.17059624 -43.64939923 22.17059624 -38 21 C-38 20.34 -38 19.68 -38 19 C-35.35261084 17.5393715 -34.10551666 17 -31 17 C-31 16.34 -31 15.68 -31 15 C-28.35261084 13.5393715 -27.10551666 13 -24 13 C-24 12.34 -24 11.68 -24 11 C-21.35261084 9.5393715 -20.10551666 9 -17 9 C-17 8.34 -17 7.68 -17 7 C-14.73595458 5.63319847 -12.46498979 4.28155555 -10.1875 2.9375 C-9.54490234 2.54755859 -8.90230469 2.15761719 -8.24023438 1.75585938 C-3.33984375 -1.11328125 -3.33984375 -1.11328125 0 0 Z " fill="#20C4C4" transform="translate(149,86)"/>
<path d="M0 0 C2.76276177 0.52268466 5.3260876 1.10869587 8 2 C8 2.66 8 3.32 8 4 C8.99 4 9.98 4 11 4 C11.495 6.475 11.495 6.475 12 9 C11.22914063 9.48210937 10.45828125 9.96421875 9.6640625 10.4609375 C8.15972656 11.40839844 8.15972656 11.40839844 6.625 12.375 C5.62726563 13.00148438 4.62953125 13.62796875 3.6015625 14.2734375 C0.9751981 15.89269712 0.9751981 15.89269712 -1 18 C-2.63594754 18.70112038 -4.27365183 19.39855768 -5.921875 20.0703125 C-9.1020578 21.49302586 -12.07526287 23.25733927 -15.08203125 25.01171875 C-17 26 -17 26 -19 26 C-19 26.66 -19 27.32 -19 28 C-25.625 32 -25.625 32 -29 32 C-29 32.66 -29 33.32 -29 34 C-32 36 -32 36 -34.1875 35.625 C-34.785625 35.41875 -35.38375 35.2125 -36 35 C-24.25589746 27.61052067 -12.49999477 20.24037253 -0.625 13.0625 C0.21772461 12.54913086 1.06044922 12.03576172 1.92871094 11.50683594 C3.08935059 10.80929199 3.08935059 10.80929199 4.2734375 10.09765625 C4.94810059 9.69039307 5.62276367 9.28312988 6.31787109 8.86352539 C8 8 8 8 10 8 C10 7.34 10 6.68 10 6 C9.278125 5.731875 8.55625 5.46375 7.8125 5.1875 C5.01528026 4.00645167 2.53580025 2.66638302 0 1 C0 0.67 0 0.34 0 0 Z " fill="#1472CA" transform="translate(258,257)"/>
<path d="M0 0 C0.56485107 0.217771 1.12970215 0.43554199 1.71166992 0.65991211 C-4.91333008 4.65991211 -4.91333008 4.65991211 -8.28833008 4.65991211 C-8.28833008 5.31991211 -8.28833008 5.97991211 -8.28833008 6.65991211 C-11.36569338 8.986699 -14.10346538 10.58117344 -17.66333008 12.09741211 C-21.25546646 13.64574676 -24.26746611 15.48576634 -27.49145508 17.67163086 C-29.28833008 18.65991211 -29.28833008 18.65991211 -32.28833008 18.65991211 C-32.28833008 19.31991211 -32.28833008 19.97991211 -32.28833008 20.65991211 C-33.14555664 21.1072168 -34.0027832 21.55452148 -34.88598633 22.01538086 C-42.3092449 25.87739089 -42.3092449 25.87739089 -49.28833008 30.47241211 C-51.96457768 32.42384265 -54.1827748 33.5951503 -57.28833008 34.65991211 C-58.27833008 35.15491211 -58.27833008 35.15491211 -59.28833008 35.65991211 C-57.84703844 32.01231308 -56.24992594 30.73440816 -52.83520508 28.88256836 C-51.91634521 28.37540283 -50.99748535 27.8682373 -50.05078125 27.34570312 C-49.05667236 26.81001709 -48.06256348 26.27433105 -47.03833008 25.72241211 C-44.94480675 24.5681104 -42.85238672 23.41180578 -40.76098633 22.25366211 C-39.68864746 21.66198242 -38.61630859 21.07030273 -37.51147461 20.46069336 C-32.44934236 17.63246374 -27.4603454 14.68471975 -22.47583008 11.72241211 C-21.60087891 11.20364502 -20.72592773 10.68487793 -19.82446289 10.15039062 C-18.55940918 9.3990686 -18.55940918 9.3990686 -17.26879883 8.63256836 C-16.45072754 8.14933105 -15.63265625 7.66609375 -14.78979492 7.16821289 C-13.03430802 6.1097122 -11.2962564 5.02201034 -9.57202148 3.91333008 C-8.69078613 3.35403809 -7.80955078 2.79474609 -6.90161133 2.21850586 C-6.11181885 1.70473389 -5.32202637 1.19096191 -4.50830078 0.66162109 C-2.28833008 -0.34008789 -2.28833008 -0.34008789 0 0 Z " fill="#1FC2CD" transform="translate(179.288330078125,40.340087890625)"/>
<path d="M0 0 C5.38887024 1.17395336 10.11272937 2.98083665 14 7 C15.25557287 11.83297107 14.9478624 16.42278755 14.625 21.375 C14.57988281 22.68339844 14.53476563 23.99179688 14.48828125 25.33984375 C14.37059044 28.56457191 14.20645502 31.77993695 14 35 C9.40953257 33.57271181 5.92382624 31.80273303 2 29 C3.32 28.67 4.64 28.34 6 28 C6 28.66 6 29.32 6 30 C7.98 30.66 9.96 31.32 12 32 C11.67 23.75 11.34 15.5 11 7 C10.34 7 9.68 7 9 7 C9 6.34 9 5.68 9 5 C8.071875 4.731875 7.14375 4.46375 6.1875 4.1875 C3.23759634 3.08851629 1.94384814 2.37581439 0 0 Z " fill="#17A2BE" transform="translate(146,153)"/>
<path d="M0 0 C2.8125 1.375 2.8125 1.375 5 3 C5 3.66 5 4.32 5 5 C5.99 5 6.98 5 8 5 C8 5.66 8 6.32 8 7 C5.37223611 6.51337706 3.82045598 5.88030399 1.5625 4.375 C-1.62259568 2.66592427 -2.58794099 3.0286516 -6 4 C-8.36762552 5.14822458 -8.36762552 5.14822458 -10.6875 6.6171875 C-11.55117188 7.14183594 -12.41484375 7.66648437 -13.3046875 8.20703125 C-14.19414062 8.75746094 -15.08359375 9.30789062 -16 9.875 C-17.33417969 10.68904297 -17.33417969 10.68904297 -18.6953125 11.51953125 C-20.35753023 12.53422834 -22.01790993 13.55194738 -23.67578125 14.57373047 C-24.44277344 15.04439941 -25.20976562 15.51506836 -26 16 C-26.85980469 16.57508301 -27.71960938 17.15016602 -28.60546875 17.74267578 C-29.39566406 18.15759277 -30.18585938 18.57250977 -31 19 C-31.99 18.67 -32.98 18.34 -34 18 C-33.01 17.67 -32.02 17.34 -31 17 C-31 16.34 -31 15.68 -31 15 C-29.02 14.67 -27.04 14.34 -25 14 C-24.67 13.01 -24.34 12.02 -24 11 C-22.68 11 -21.36 11 -20 11 C-20 10.34 -20 9.68 -20 9 C-16.32547562 6.1605948 -14.73113419 5 -10 5 C-10 4.34 -10 3.68 -10 3 C-6.62126788 0.49008471 -4.20322025 -0.63048304 0 0 Z " fill="#1481D4" transform="translate(285,120)"/>
<path d="M0 0 C0.99 0.33 1.98 0.66 3 1 C2.67 13.21 2.34 25.42 2 38 C3.65 38.66 5.3 39.32 7 40 C7 40.33 7 40.66 7 41 C5.35 41 3.7 41 2 41 C2 40.34 2 39.68 2 39 C1.34 39 0.68 39 0 39 C0 26.13 0 13.26 0 0 Z " fill="#1493DA" transform="translate(207,164)"/>
<path d="M0 0 C-0.33 0.99 -0.66 1.98 -1 3 C-1.15370348 5.72883073 -1.25728265 8.43697142 -1.31640625 11.16796875 C-1.33718735 11.96278152 -1.35796844 12.7575943 -1.37937927 13.57649231 C-1.44472087 16.11340763 -1.50368808 18.65042573 -1.5625 21.1875 C-1.60569986 22.90821372 -1.64931463 24.62891708 -1.69335938 26.34960938 C-1.80038648 30.56630113 -1.90169724 34.7830962 -2 39 C-1.01 39 -0.02 39 1 39 C1 39.66 1 40.32 1 41 C-0.65 40.34 -2.3 39.68 -4 39 C-4 26.46 -4 13.92 -4 1 C-2 0 -2 0 0 0 Z " fill="#1BAFC3" transform="translate(111,246)"/>
<path d="M0 0 C0 12.21 0 24.42 0 37 C-0.66 36.67 -1.32 36.34 -2 36 C-2 25.11 -2 14.22 -2 3 C-4.31 4.32 -6.62 5.64 -9 7 C-9.66 6.67 -10.32 6.34 -11 6 C-9.89932004 5.18278283 -8.79430269 4.37140549 -7.6875 3.5625 C-7.07261719 3.11003906 -6.45773438 2.65757812 -5.82421875 2.19140625 C-3.99206183 0.99481554 -2.27085743 0 0 0 Z " fill="#1EA9C6" transform="translate(131,234)"/>
<path d="M0 0 C8.2649438 3.92385725 16.0957861 8.49599368 23.9375 13.1875 C25.16713835 13.91892141 26.39695508 14.65004302 27.62695312 15.38085938 C36.44357968 20.62905312 36.44357968 20.62905312 40 23 C39.67 23.66 39.34 24.32 39 25 C26.21595465 18.32922746 26.21595465 18.32922746 20.73828125 14.18359375 C17.81365579 12.19221956 14.62555433 10.73975561 11.4453125 9.203125 C8.20638443 7.609531 5.1122897 5.82677874 2 4 C2 3.34 2 2.68 2 2 C1.34 2 0.68 2 0 2 C0 1.34 0 0.68 0 0 Z " fill="#1782D6" transform="translate(275,89)"/>
<path d="M0 0 C0.99 0 1.98 0 3 0 C3 0.66 3 1.32 3 2 C3.54527344 2.10054687 4.09054688 2.20109375 4.65234375 2.3046875 C7.59648251 3.17666204 9.92202751 4.55688984 12.5625 6.125 C14.14804688 7.06472656 14.14804688 7.06472656 15.765625 8.0234375 C18.81380724 9.88621553 21.81634338 11.8049812 24.8125 13.75 C28.77606913 16.30621487 32.59202033 18.33476324 37 20 C37 20.66 37 21.32 37 22 C37.639375 22.12375 38.27875 22.2475 38.9375 22.375 C39.9584375 22.684375 39.9584375 22.684375 41 23 C41.495 23.99 41.495 23.99 42 25 C35.88508002 23.38973774 30.85628294 20.1196098 25.5 16.875 C23.53953531 15.70103298 21.57859725 14.52785611 19.6171875 13.35546875 C18.66295898 12.7836084 17.70873047 12.21174805 16.72558594 11.62255859 C13.04969553 9.43427772 9.34485238 7.29997208 5.625 5.1875 C4.52414063 4.56230469 3.42328125 3.93710938 2.2890625 3.29296875 C1.53367187 2.86628906 0.77828125 2.43960938 0 2 C0 1.34 0 0.68 0 0 Z " fill="#21C9BC" transform="translate(77,139)"/>
<path d="M0 0 C0.66 0.66 1.32 1.32 2 2 C1.47792969 2.27972656 0.95585938 2.55945313 0.41796875 2.84765625 C-3.99374494 5.25053358 -8.27688279 7.77790611 -12.5 10.5 C-16.60519634 13.14480437 -20.76197217 15.60054321 -25.05078125 17.93359375 C-27.40803161 19.22323172 -29.70929133 20.59601727 -32 22 C-31.63857318 19.44630101 -31.37109426 18.30110314 -29.33276367 16.6472168 C-28.61838135 16.25187744 -27.90399902 15.85653809 -27.16796875 15.44921875 C-26.37430908 15.00102783 -25.58064941 14.55283691 -24.76293945 14.09106445 C-23.91304443 13.62788818 -23.06314941 13.16471191 -22.1875 12.6875 C-20.45563766 11.71630898 -18.72386688 10.7449547 -16.9921875 9.7734375 C-16.14237305 9.30260742 -15.29255859 8.83177734 -14.41699219 8.34667969 C-11.18770162 6.54741032 -7.99978952 4.68512814 -4.8125 2.8125 C-3.87019531 2.26207031 -2.92789063 1.71164063 -1.95703125 1.14453125 C-0.98830078 0.57798828 -0.98830078 0.57798828 0 0 Z " fill="#1EDBBC" transform="translate(84,95)"/>
<path d="M0 0 C0 0.66 0 1.32 0 2 C-2.41245824 3.56379519 -4.81665265 5.01883195 -7.3125 6.4375 C-8.6860155 7.22364846 -10.05719804 8.01388988 -11.42578125 8.80859375 C-12.03848877 9.15720459 -12.65119629 9.50581543 -13.2824707 9.86499023 C-15.1058802 11.06996973 -16.48875814 12.42842593 -18 14 C-21.78992899 16.66698706 -25.53535649 16.14882145 -30 16 C-30 15.34 -30 14.68 -30 14 C-29.04738281 13.95875 -28.09476563 13.9175 -27.11328125 13.875 C-21.72558839 13.10436048 -17.62907717 9.96332743 -13.1875 7 C-11.49374915 5.89543521 -9.79975097 4.79124955 -8.10546875 3.6875 C-7.36449951 3.19636719 -6.62353027 2.70523437 -5.86010742 2.19921875 C-2.44890065 0 -2.44890065 0 0 0 Z " fill="#1285D7" transform="translate(222,293)"/>
<path d="M0 0 C2.76276177 0.52268466 5.3260876 1.10869587 8 2 C8 2.66 8 3.32 8 4 C8.99 4 9.98 4 11 4 C11.33 5.65 11.66 7.3 12 9 C10.84371094 9.72316406 10.84371094 9.72316406 9.6640625 10.4609375 C8.66117187 11.09257812 7.65828125 11.72421875 6.625 12.375 C5.62726563 13.00148438 4.62953125 13.62796875 3.6015625 14.2734375 C0.9751981 15.89269712 0.9751981 15.89269712 -1 18 C-3.125 17.625 -3.125 17.625 -5 17 C-4.34 17 -3.68 17 -3 17 C-2.67 16.01 -2.34 15.02 -2 14 C0.21484375 12.39453125 0.21484375 12.39453125 2.9375 10.8125 C3.83339844 10.28269531 4.72929687 9.75289063 5.65234375 9.20703125 C8 8 8 8 10 8 C10 7.34 10 6.68 10 6 C9.278125 5.731875 8.55625 5.46375 7.8125 5.1875 C5.01528026 4.00645167 2.53580025 2.66638302 0 1 C0 0.67 0 0.34 0 0 Z " fill="#0D74E1" transform="translate(258,257)"/>
<path d="M0 0 C1.03060547 0.63228516 1.03060547 0.63228516 2.08203125 1.27734375 C2.98308594 1.82519531 3.88414062 2.37304688 4.8125 2.9375 C5.70582031 3.48277344 6.59914062 4.02804688 7.51953125 4.58984375 C10.00703562 6.11009578 10.00703562 6.11009578 13 7 C13 7.66 13 8.32 13 9 C13.8353125 9.1546875 13.8353125 9.1546875 14.6875 9.3125 C17.4769101 10.14178408 19.6139064 11.34299056 22 13 C22 13.66 22 14.32 22 15 C16.23684231 13.45196735 11.62543026 10.51721614 6.625 7.375 C5.37783203 6.6015625 5.37783203 6.6015625 4.10546875 5.8125 C2.06682038 4.54713205 0.03187118 3.27621134 -2 2 C-1.34 1.34 -0.68 0.68 0 0 Z " fill="#137AD8" transform="translate(236,242)"/>
<path d="M0 0 C-1 3 -1 3 -3.0625 4.1875 C-3.701875 4.455625 -4.34125 4.72375 -5 5 C-5 5.66 -5 6.32 -5 7 C-3.04775792 8.28406399 -1.03659238 9.47941678 1 10.625 C2.11375 11.25664063 3.2275 11.88828125 4.375 12.5390625 C5.24125 13.02117187 6.1075 13.50328125 7 14 C4 15 4 15 1.8125 14.0625 C1.214375 13.711875 0.61625 13.36125 0 13 C0 12.34 0 11.68 0 11 C-2.31 10.34 -4.62 9.68 -7 9 C-7.33 7.35 -7.66 5.7 -8 4 C-2.25 0 -2.25 0 0 0 Z " fill="#20D0BE" transform="translate(98,114)"/>
<path d="M0 0 C7.76406151 4.17241888 15.40836142 8.52186066 23 13 C21.68 13.33 20.36 13.66 19 14 C19 13.34 19 12.68 19 12 C18.27039063 11.896875 17.54078125 11.79375 16.7890625 11.6875 C13.73513679 10.93471159 11.92139381 9.8201028 9.375 8 C6.82203869 6.18765887 4.99311875 4.99770625 2 4 C2 3.34 2 2.68 2 2 C1.34 2 0.68 2 0 2 C0 1.34 0 0.68 0 0 Z " fill="#177BC8" transform="translate(229,213)"/>
<path d="M0 0 C0.66 0.66 1.32 1.32 2 2 C-7.9 7.94 -7.9 7.94 -18 14 C-18 13.01 -18 12.02 -18 11 C-16.35546875 9.61328125 -16.35546875 9.61328125 -14.1875 8.3125 C-13.47980469 7.87550781 -12.77210937 7.43851562 -12.04296875 6.98828125 C-10 6 -10 6 -7 6 C-7 5.34 -7 4.68 -7 4 C-4.35261084 2.5393715 -3.10551666 2 0 2 C0 1.34 0 0.68 0 0 Z " fill="#21CAA5" transform="translate(73,263)"/>
<path d="M0 0 C5.09647717 0.48796058 8.66704554 2.30638503 12.875 5.0625 C13.76445312 5.62807617 13.76445312 5.62807617 14.671875 6.20507812 C16.12027322 7.12784796 17.56096031 8.06270263 19 9 C18.67 9.66 18.34 10.32 18 11 C15.93408908 9.92318552 13.87240822 8.8382534 11.8125 7.75 C10.66394531 7.14671875 9.51539063 6.5434375 8.33203125 5.921875 C5.28265749 4.16303339 2.67513694 2.27714105 0 0 Z " fill="#127DDE" transform="translate(296,103)"/>
<path d="M0 0 C1.98 0.66 3.96 1.32 6 2 C6 2.66 6 3.32 6 4 C6.61875 4.12375 7.2375 4.2475 7.875 4.375 C10 5 10 5 12 7 C13.0209375 7.2165625 13.0209375 7.2165625 14.0625 7.4375 C15.0215625 7.7159375 15.0215625 7.7159375 16 8 C16.33 8.99 16.66 9.98 17 11 C12.46152802 9.65072455 8.68067754 7.80840652 4.625 5.375 C3.56539062 4.74335938 2.50578125 4.11171875 1.4140625 3.4609375 C0.61742187 2.97882813 -0.17921875 2.49671875 -1 2 C-0.67 1.34 -0.34 0.68 0 0 Z " fill="#1683CC" transform="translate(208,227)"/>
<path d="M0 0 C0.556875 0.22042969 1.11375 0.44085938 1.6875 0.66796875 C-4.9375 4.66796875 -4.9375 4.66796875 -8.3125 4.66796875 C-8.3125 5.32796875 -8.3125 5.98796875 -8.3125 6.66796875 C-10.27397874 8.05734952 -12.27416576 9.39400985 -14.3125 10.66796875 C-14.9725 10.33796875 -15.6325 10.00796875 -16.3125 9.66796875 C-13.53761396 6.71965234 -10.76130996 4.47417365 -7.3125 2.35546875 C-6.0440625 1.55689453 -6.0440625 1.55689453 -4.75 0.7421875 C-2.3125 -0.33203125 -2.3125 -0.33203125 0 0 Z " fill="#1DC2DA" transform="translate(179.3125,40.33203125)"/>
<path d="M0 0 C5.17935061 1.46828943 9.34373412 3.81491263 13.875 6.625 C14.90753906 7.25535156 14.90753906 7.25535156 15.9609375 7.8984375 C17.64391658 8.92692472 19.32242532 9.962721 21 11 C20.01 11.33 19.02 11.66 18 12 C15.53614152 10.76807076 13.31867989 9.47250691 11 8 C10.04222656 7.40832031 9.08445313 6.81664062 8.09765625 6.20703125 C2.35450201 2.62217951 2.35450201 2.62217951 0 1 C0 0.67 0 0.34 0 0 Z " fill="#21C1C7" transform="translate(122,139)"/>
<path d="M0 0 C0.52078125 0.24621094 1.0415625 0.49242187 1.578125 0.74609375 C-5.046875 4.74609375 -5.046875 4.74609375 -8.421875 4.74609375 C-8.421875 5.40609375 -8.421875 6.06609375 -8.421875 6.74609375 C-11.421875 8.74609375 -11.421875 8.74609375 -13.609375 8.37109375 C-14.2075 8.16484375 -14.805625 7.95859375 -15.421875 7.74609375 C-13.34750042 6.37616719 -11.26426038 5.02549829 -9.171875 3.68359375 C-8.58535156 3.29365234 -7.99882812 2.90371094 -7.39453125 2.50195312 C-2.96392641 -0.31073422 -2.96392641 -0.31073422 0 0 Z " fill="#137CDB" transform="translate(237.421875,284.25390625)"/>
<path d="M0 0 C0 0.66 0 1.32 0 2 C-2.51953125 3.76171875 -2.51953125 3.76171875 -5.8125 5.6875 C-6.89144531 6.33074219 -7.97039062 6.97398437 -9.08203125 7.63671875 C-12 9 -12 9 -15 8 C-12.8782637 6.66121428 -10.75294812 5.32884524 -8.625 4 C-8.02171875 3.6184375 -7.4184375 3.236875 -6.796875 2.84375 C-2.2265625 0 -2.2265625 0 0 0 Z " fill="#157CCE" transform="translate(222,293)"/>
<path d="M0 0 C-0.33 0.99 -0.66 1.98 -1 3 C-3.91038896 4.4158649 -6.846502 5.29922267 -10 6 C-10 6.66 -10 7.32 -10 8 C-13 10 -13 10 -15.1875 9.625 C-15.785625 9.41875 -16.38375 9.2125 -17 9 C-14.54481265 7.49462965 -12.0861548 5.99555574 -9.625 4.5 C-8.92632812 4.07074219 -8.22765625 3.64148438 -7.5078125 3.19921875 C-2.2265625 0 -2.2265625 0 0 0 Z " fill="#1A8EDA" transform="translate(257,109)"/>
<path d="M0 0 C3.23681424 0.37637375 5.08597301 1.37993709 7.6875 3.3125 C7.6875 3.9725 7.6875 4.6325 7.6875 5.3125 C8.6775 5.3125 9.6675 5.3125 10.6875 5.3125 C10.6875 5.9725 10.6875 6.6325 10.6875 7.3125 C8.14921748 6.84244768 6.51973767 6.20654485 4.3125 4.8125 C1.39704653 3.14652659 -1.00019281 2.697652 -4.3125 2.3125 C-2.3125 0.3125 -2.3125 0.3125 0 0 Z " fill="#107BDD" transform="translate(282.3125,119.6875)"/>
<path d="M0 0 C1.32 0 2.64 0 4 0 C4 0.66 4 1.32 4 2 C5.32 2 6.64 2 8 2 C8 2.66 8 3.32 8 4 C9.98 4.66 11.96 5.32 14 6 C13.67 6.99 13.34 7.98 13 9 C10.83061859 7.69181533 8.6644848 6.37874076 6.5 5.0625 C5.87996094 4.68931641 5.25992188 4.31613281 4.62109375 3.93164062 C3.06370003 2.9818016 1.5296725 1.99386689 0 1 C0 0.67 0 0.34 0 0 Z " fill="#158BCB" transform="translate(173,323)"/>
<path d="M0 0 C2.64 0.66 5.28 1.32 8 2 C8 2.66 8 3.32 8 4 C9.98 4.66 11.96 5.32 14 6 C13.34 6.66 12.68 7.32 12 8 C9.99743426 6.85865673 7.99800203 5.71181367 6 4.5625 C4.88625 3.92441406 3.7725 3.28632812 2.625 2.62890625 C1.75875 2.09136719 0.8925 1.55382812 0 1 C0 0.67 0 0.34 0 0 Z " fill="#1DADD1" transform="translate(184,65)"/>
<path d="M0 0 C-1.62170379 1.00533667 -3.24747237 2.00411907 -4.875 3 C-6.23238281 3.8353125 -6.23238281 3.8353125 -7.6171875 4.6875 C-10 6 -10 6 -12 6 C-12 5.34 -12 4.68 -12 4 C-10.35 3.67 -8.7 3.34 -7 3 C-6.67 2.01 -6.34 1.02 -6 0 C-3 -1 -3 -1 0 0 Z " fill="#178CDA" transform="translate(240,147)"/>
<path d="M0 0 C5.7607103 1.29322068 9.33195882 3.37988643 14 7 C10.27792613 7 8.53604411 5.82035432 5.3125 4 C4.31863281 3.443125 3.32476562 2.88625 2.30078125 2.3125 C1.54152344 1.879375 0.78226563 1.44625 0 1 C0 0.67 0 0.34 0 0 Z " fill="#1FA4D7" transform="translate(207,78)"/>
<path d="M0 0 C2.76276177 0.52268466 5.3260876 1.10869587 8 2 C8 2.66 8 3.32 8 4 C8.66 4 9.32 4 10 4 C10 4.66 10 5.32 10 6 C6.40992874 4.66654496 3.20429093 3.1056769 0 1 C0 0.67 0 0.34 0 0 Z " fill="#1471D0" transform="translate(258,257)"/>
<path d="M0 0 C4.85963179 0.60745397 8.7405518 2.72758967 13 5 C12.34 5.66 11.68 6.32 11 7 C7.37 5.02 3.74 3.04 0 1 C0 0.67 0 0.34 0 0 Z " fill="#1A8FD2" transform="translate(236,95)"/>
<path d="M0 0 C0 0.99 0 1.98 0 3 C-1.53125 4.38671875 -1.53125 4.38671875 -3.5 5.6875 C-4.47453125 6.34298828 -4.47453125 6.34298828 -5.46875 7.01171875 C-5.9740625 7.33785156 -6.479375 7.66398437 -7 8 C-7.66 7.67 -8.32 7.34 -9 7 C-7.87720538 6.01830524 -6.75168527 5.03972702 -5.625 4.0625 C-4.68527344 3.24458984 -4.68527344 3.24458984 -3.7265625 2.41015625 C-2 1 -2 1 0 0 Z " fill="#18CEC3" transform="translate(107,81)"/>
<path d="M0 0 C3.3 1.65 6.6 3.3 10 5 C10 5.33 10 5.66 10 6 C6.47730515 6.4025937 5.20059192 6.13372795 2.1875 4.125 C1.465625 3.42375 0.74375 2.7225 0 2 C0 1.34 0 0.68 0 0 Z " fill="#1789D2" transform="translate(258,79)"/>
<path d="M0 0 C0.66 0.66 1.32 1.32 2 2 C-0.97 3.65 -3.94 5.3 -7 7 C-7 6.01 -7 5.02 -7 4 C-4.35261084 2.5393715 -3.10551666 2 0 2 C0 1.34 0 0.68 0 0 Z " fill="#1BC0A2" transform="translate(73,263)"/>
<path d="M0 0 C-0.33 0.99 -0.66 1.98 -1 3 C-2.98723268 3.70381157 -4.98777953 4.3711811 -7 5 C-7.33 5.66 -7.66 6.32 -8 7 C-7.8125 5.1875 -7.8125 5.1875 -7 3 C-2.82142857 0 -2.82142857 0 0 0 Z " fill="#1BDAC4" transform="translate(98,114)"/>
<path d="M0 0 C2.9719385 1.12451727 5.33440687 2.22293791 8 4 C8 4.66 8 5.32 8 6 C5.0280615 4.87548273 2.66559313 3.77706209 0 2 C0 1.34 0 0.68 0 0 Z " fill="#1685CD" transform="translate(218,207)"/>
<path d="M0 0 C-2.8125 2.0625 -2.8125 2.0625 -6 4 C-6.99 3.67 -7.98 3.34 -9 3 C-8.01 2.67 -7.02 2.34 -6 2 C-6 1.34 -6 0.68 -6 0 C-3 -1 -3 -1 0 0 Z " fill="#1586D9" transform="translate(260,135)"/>
<path d="M0 0 C0 0.66 0 1.32 0 2 C-1.96147874 3.38938077 -3.96166576 4.7260411 -6 6 C-6.66 5.67 -7.32 5.34 -8 5 C-3.16129032 0 -3.16129032 0 0 0 Z " fill="#17C7E0" transform="translate(171,45)"/>
</svg>
